<?xml version="1.0" encoding="UTF-8"?>
<svg id="Layer_1" data-name="Layer 1" xmlns="http://www.w3.org/2000/svg" viewBox="0 0 267.42 238.81">
  <path d="M129.78.7c-.68.34-1.66,1.28-2.18,2.07-.83,1.2-.94,1.73-.79,3.57.26,3.61,2.48,5.76,5.91,5.76s6.06-2.41,6.13-5.72c.08-4.78-4.74-7.82-9.07-5.68Z" style="fill: #6366f1; fill-rule: evenodd; stroke-width: 0px;"/>
  <path d="M85.32,28.01c-.9.49-4.78,2.6-8.61,4.66s-9.1,4.89-11.7,6.24c-3.8,1.99-4.85,2.75-5.34,3.72-.53,1.02-4.55,20.95-15.35,75.91-.64,3.2-1.32,5.98-1.47,6.17-.56.56-12.64-4.21-20.05-7.9-13.99-7.03-13.43-10.53,1.99-12.56,3.01-.41,7.86-.83,10.83-.98,2.93-.15,5.57-.45,5.87-.68.26-.23.87-2.29,1.35-4.55.45-2.29.9-4.55,1.02-5.04l.23-.9-5.04.26c-21.55,1.17-34.49,5.83-36.64,13.2-.41,1.39-.56,2.71-.41,3.72,1.39,8.84,15.27,18.24,39.65,26.78,32.69,11.44,80.08,21.03,120.82,24.37,19.67,1.66,41.23,1.73,52.1.26,13.54-1.84,22.42-5.72,25.28-11.02,1.05-1.96.87-5.68-.38-8.31-3.01-6.09-12.38-12.75-26.26-18.66-1.99-.87-3.8-1.54-4.02-1.54-.19,0-.49.79-.64,1.73-.11.94-.45,2.6-.75,3.65-.83,3.27-1.02,4.78-.6,4.78.23,0,2.18.79,4.4,1.73,13.96,5.94,19.9,10.04,18.62,12.83-.79,1.73-5.6,3.27-13.01,4.21-3.35.41-20.46,1.35-20.69,1.13-.08-.08.11-1.35.38-2.78.3-1.47,1.54-7.9,2.78-14.29,3.76-19.37,7.15-36.75,8.88-45.7,4.66-23.77,6.21-32.01,6.21-33.03,0-1.35-1.13-2.82-2.52-3.39-.56-.23-2.48-.68-4.25-.98-1.77-.34-3.54-.68-3.95-.75-6.17-1.32-116.01-23.17-116.46-23.17-.34,0-1.35.41-2.26.87ZM98.41,37.64c11.4,2.29,41.94,8.28,64.25,12.64,9.1,1.77,18.24,3.57,20.31,3.99,2.07.45,5.04,1.02,6.58,1.28s5,.9,7.64,1.47c2.63.53,5.64,1.05,6.66,1.2s2.03.45,2.22.68c.19.26-.23,3.2-1.13,7.56-.79,3.91-4.93,24.49-9.18,45.67-4.21,21.22-7.86,38.71-8.05,38.89-.34.34-12.15-.08-12.79-.49-.3-.15.98-7.34,4.06-23.17,12.38-62.97,11.59-58.45,10.95-59.96-.26-.64-.87-1.43-1.35-1.73-.45-.3-11.06-2.6-23.55-5.08-12.45-2.45-29.08-5.76-36.86-7.3-7.79-1.54-14.41-2.82-14.75-2.82s-.71.56-.94,1.39c-.38,1.43-4.4,20.95-5.6,27.35-.38,1.84-.83,3.42-1.05,3.5-.19.08-2.22-2.52-4.48-5.72-2.33-3.39-4.29-5.79-4.51-5.68-.26.08-3.01,1.81-6.13,3.76-3.08,1.99-5.76,3.61-5.87,3.61-.49,0-.11-2.22,2.78-16.7,1.66-8.28,3.01-15.31,3.01-15.61,0-.49-1.2-.83-5.38-1.66-2.93-.56-6.28-1.28-7.41-1.5l-2.07-.49,2.82-1.54c1.54-.83,4.18-2.26,5.83-3.12s3.16-1.77,3.39-1.92q.53-.49,10.61,1.5Z" style="fill: #6366f1; fill-rule: evenodd; stroke-width: 0px;"/>
  <path d="M246.8,38.58c-.68,2.14-1.2,4.1-1.2,4.29,0,.41-.6.64-6.09,2.18-2.03.56-3.69,1.13-3.69,1.32,0,.15.98.56,2.18.9,1.17.34,3.31.98,4.74,1.43l2.63.83,1.2,4.48c1.17,4.25,1.47,5.04,1.81,4.7.08-.08.71-2.18,1.39-4.66l1.28-4.51,1.88-.64c1.05-.38,3.12-1.02,4.63-1.47,1.47-.41,2.71-.9,2.71-1.02,0-.15-1.73-.75-3.8-1.32-5.91-1.66-5.3-1.13-6.77-6.06-.71-2.41-1.35-4.36-1.47-4.36s-.75,1.77-1.43,3.91Z" style="fill: #6366f1; fill-rule: evenodd; stroke-width: 0px;"/>
  <path d="M12.8,48.39c-.71,2.41-1.5,4.63-1.77,4.85-.23.26-2.48,1.02-5,1.69s-4.66,1.39-4.74,1.58c-.11.15.75.6,1.96.9,1.2.34,3.46,1.02,5,1.47l2.82.83,1.2,3.91c.64,2.18,1.28,4.4,1.39,4.97.11.6.34,1.05.53,1.05s.87-2.03,1.54-4.48c.68-2.48,1.43-4.74,1.66-5.04.26-.3,2.48-1.2,4.97-1.96,4.06-1.28,4.44-1.43,3.76-1.92-.38-.3-.98-.53-1.28-.56-.34,0-2.11-.49-3.99-1.05l-3.39-1.05-1.02-2.78c-.56-1.54-1.05-3.05-1.05-3.35s-.3-1.2-.68-2.03l-.64-1.47-1.28,4.44Z" style="fill: #6366f1; fill-rule: evenodd; stroke-width: 0px;"/>
  <path d="M259.48,129.19c-1.58,1.05-2.22,2.26-2.22,4.21,0,2.78,2.29,5.08,5.08,5.08s5.08-2.29,5.08-5c0-4.06-4.59-6.55-7.94-4.29Z" style="fill: #6366f1; fill-rule: evenodd; stroke-width: 0px;"/>
  <path d="M34.65,167.18c-5.23,26.33-5.19,25.99-3.72,27.8.94,1.17-3.16.3,65.71,13.84,11.7,2.29,24.15,4.74,27.65,5.45,20.95,4.18,31.82,6.21,33.03,6.21.98,0,1.73-.3,2.56-1.05l1.2-1.05,4.78-24.26c2.63-13.32,4.89-24.83,5.04-25.58l.23-1.39-4.59-.23c-18.66-1.02-49.77-5.53-73.28-10.61-3.42-.75-7.37-1.58-8.84-1.88-8.95-1.92-26.52-6.7-37.16-10.16-4.1-1.32-7.49-2.41-7.52-2.41-.08,0-2.33,11.4-5.08,25.32Z" style="fill: #6366f1; fill-rule: evenodd; stroke-width: 0px;"/>
  <path d="M1.44,160.41c-1.77,1.35-1.92,3.65-.38,5.19,2.33,2.33,5.87.9,5.87-2.37,0-1.2-.23-1.69-1.05-2.41-1.17-1.02-3.42-1.2-4.44-.41Z" style="fill: #6366f1; fill-rule: evenodd; stroke-width: 0px;"/>
  <path d="M184.47,168.65c-.11.49-1.73,8.46-3.57,17.75-3.05,15.31-3.31,16.96-2.86,18.06.79,1.84,1.96,2.67,3.84,2.67,1.32,0,1.84-.23,2.75-1.13,1.09-1.09,1.28-1.77,3.61-13.73,1.35-6.92,2.97-15.08,3.61-18.17.6-3.05,1.09-5.72,1.09-5.91,0-.23-1.66-.38-4.14-.38-3.95,0-4.14.04-4.33.83Z" style="fill: #6366f1; fill-rule: evenodd; stroke-width: 0px;"/>
  <path d="M200.46,218.49c-.68,2.26-1.43,4.25-1.66,4.51s-2.45,1.05-4.93,1.77-4.51,1.43-4.51,1.58c0,.19,2.11.94,4.7,1.69l4.7,1.35,1.35,4.63c.75,2.56,1.54,4.74,1.73,4.78.23.08.94-1.84,1.58-4.29.68-2.45,1.24-4.63,1.32-4.81.08-.23,2.07-.94,4.4-1.66,2.37-.68,4.51-1.39,4.78-1.5.3-.15-1.35-.83-3.76-1.5-2.33-.71-4.51-1.39-4.81-1.58-.34-.15-1.17-2.11-1.84-4.36-.68-2.22-1.39-4.18-1.5-4.36-.15-.15-.83,1.54-1.54,3.76Z" style="fill: #6366f1; fill-rule: evenodd; stroke-width: 0px;"/>
  <path d="M73.32,226.58c-4.06,2.07-4.89,7.15-1.73,10.31,3.16,3.16,8.24,2.33,10.31-1.73,2.75-5.34-3.23-11.32-8.58-8.58Z" style="fill: #6366f1; fill-rule: evenodd; stroke-width: 0px;"/>
</svg>
